<svg id="Layer_1" data-name="Layer 1" xmlns="http://www.w3.org/2000/svg" viewBox="0 0 16 16"><defs><style>.cls-1{fill:#fff;stroke:#414042;stroke-miterlimit:10;stroke-width:0.1px;}</style></defs><title>offline-dark</title><path class="cls-1" d="M8,4.29,0,0V11.71L8,16l8-4.29V0Zm3.33,6.35a1.17,1.17,0,0,1,0,1.66,1.16,1.16,0,0,1-.83.34,1.17,1.17,0,0,1-.83-.34L8,10.63,6.33,12.3a1.2,1.2,0,0,1-1.66,0,1.17,1.17,0,0,1,0-1.66L6.34,9,4.67,7.3A1.17,1.17,0,0,1,6.33,5.64L8,7.31,9.67,5.64A1.17,1.17,0,0,1,11.33,7.3L9.66,9Z"/></svg>