<svg id="Layer_1" data-name="Layer 1" xmlns="http://www.w3.org/2000/svg" viewBox="0 0 16 16"><defs><style>.cls-1{fill:#231f20;}.cls-2{fill:#5757ff;}.cls-3{fill:#fff;}</style></defs><title>waiting_light_background</title><polyline class="cls-1" points="14.28 10.85 7.14 14.68 0 10.85 0 0.4 7.14 4.23 14.28 0.4 14.28 10.85"/><polygon class="cls-1" points="0 1.9 0 0.4 7.14 4.23 14.28 0.4 14.28 1.9 7.14 5.73 0 1.9"/><polygon class="cls-1" points="0 10.85 0 9.35 7.14 13.18 14.28 9.35 14.28 10.85 7.14 14.68 0 10.85"/><circle class="cls-2" cx="11.61" cy="11.21" r="4.39"/><path class="cls-3" d="M13.26,9h.45v-.3H9.51V9H10a2.29,2.29,0,0,0,.67,1.5l.76.75-.76.76a2.29,2.29,0,0,0-.67,1.5H9.51v.3h4.2v-.31h-.45A2.34,2.34,0,0,0,12.58,12l-.76-.76.76-.75A2.35,2.35,0,0,0,13.26,9Zm-.89,3.22A2,2,0,0,1,13,13.45h-2.7a2,2,0,0,1,.6-1.28l.75-.76ZM11.61,11l-.75-.76A2,2,0,0,1,10.26,9H13a2,2,0,0,1-.59,1.28Z"/></svg>