<svg id="Layer_1" data-name="Layer 1" xmlns="http://www.w3.org/2000/svg" viewBox="0 0 16 16"><defs><style>.cls-1{fill:#231f20;}.cls-2{fill:#c6c6c6;}.cls-3{fill:#fff;}</style></defs><title>none_light_background</title><polyline class="cls-1" points="14.28 10.85 7.14 14.68 0 10.85 0 0.4 7.14 4.23 14.28 0.4 14.28 10.85"/><polygon class="cls-1" points="0 1.9 0 0.4 7.14 4.23 14.28 0.4 14.28 1.9 7.14 5.73 0 1.9"/><polygon class="cls-1" points="0 10.85 0 9.35 7.14 13.18 14.28 9.35 14.28 10.85 7.14 14.68 0 10.85"/><ellipse class="cls-2" cx="11.59" cy="11.34" rx="2.61" ry="1.15"/><path class="cls-2" d="M11.61,6.81A4.4,4.4,0,1,0,16,11.21,4.41,4.41,0,0,0,11.61,6.81Zm1.92,4.76H9.69a.37.37,0,1,1,0-.73h3.84a.37.37,0,1,1,0,.73Z"/><path class="cls-3" d="M13.4,10.79H12.3l1.2-1.2,0-.05a.15.15,0,0,0-.08-.19H11.94a.14.14,0,0,0-.14.14.14.14,0,0,0,.14.15H13l-1.2,1.2,0,.05a.15.15,0,0,0,.08.19H13.4a.14.14,0,0,0,.14-.14A.15.15,0,0,0,13.4,10.79Zm-2.18.74H10.4l.93-.93,0,0a.15.15,0,0,0-.08-.19H10.05a.15.15,0,0,0-.15.15.15.15,0,0,0,.15.14h.82l-.93.93,0,0a.15.15,0,0,0,.08.19h1.23a.15.15,0,0,0,.15-.15A.15.15,0,0,0,11.22,11.53Zm1.06,1.52h-.47l.57-.58s0,0,0-.05a.15.15,0,0,0-.08-.19h-.88a.15.15,0,0,0-.15.14.15.15,0,0,0,.15.15h.47l-.57.58a.1.1,0,0,0,0,.05.2.2,0,0,0,0,.11.3.3,0,0,0,.08.08h.89a.15.15,0,0,0,.15-.15A.15.15,0,0,0,12.28,13.05Z"/></svg>