<svg id="Layer_1" data-name="Layer 1" xmlns="http://www.w3.org/2000/svg" viewBox="0 0 16 16"><defs><style>.cls-1{fill:#414042;stroke:#fff;stroke-miterlimit:10;stroke-width:0.1px;}</style></defs><title>connected-key-light</title><path class="cls-1" d="M10.44,8.17a.65.65,0,0,0,0,.93.67.67,0,0,0,.93,0,.66.66,0,0,0-.93-.93Z"/><path class="cls-1" d="M8,4.29,0,0V11.71L8,16l8-4.29V0Zm4.72,4.79a1.86,1.86,0,0,1-.85,1.16,1.88,1.88,0,0,1-1.41.21,1.85,1.85,0,0,1-1.35-1.3h-2v.41a.52.52,0,0,1-1,0V9.14H5.58V10a.48.48,0,0,1-.16.36.48.48,0,0,1-.36.15.51.51,0,0,1-.37-.15h0A.51.51,0,0,1,4.54,10V9.14h-.8A.51.51,0,0,1,3.37,9h0a.53.53,0,0,1,0-.74.56.56,0,0,1,.37-.15H9.11a1.86,1.86,0,0,1,3.4-.44A1.83,1.83,0,0,1,12.72,9.08Z"/></svg>