<svg id="Layer_1" data-name="Layer 1" xmlns="http://www.w3.org/2000/svg" viewBox="0 0 16 16"><defs><style>.cls-1{fill:#231f20;}.cls-2{fill:#f44336;}.cls-3{fill:#fafafa;}</style></defs><title>error_light_background</title><polyline class="cls-1" points="14.21 10.84 7.1 14.65 0 10.84 0 0.44 7.1 4.25 14.21 0.44 14.21 10.84"/><polygon class="cls-1" points="0 1.93 0 0.44 7.1 4.25 14.21 0.44 14.21 1.93 7.1 5.74 0 1.93"/><polygon class="cls-1" points="0 10.84 0 9.35 7.1 13.16 14.21 9.35 14.21 10.84 7.1 14.65 0 10.84"/><path class="cls-2" d="M11.63,6.82A4.37,4.37,0,1,0,16,11.19,4.37,4.37,0,0,0,11.63,6.82Z"/><path class="cls-3" d="M13.24,12.28a.37.37,0,0,1,0,.52.36.36,0,0,1-.52,0l-1.09-1.1-1.1,1.1a.36.36,0,0,1-.25.11A.36.36,0,0,1,10,12.8a.37.37,0,0,1,0-.52l1.09-1.09L10,10.1a.37.37,0,0,1,0-.52.36.36,0,0,1,.51,0l1.1,1.09,1.09-1.09a.37.37,0,0,1,.52.52l-1.1,1.09Z"/></svg>