<svg id="Layer_1" data-name="Layer 1" xmlns="http://www.w3.org/2000/svg" viewBox="0 0 16 16"><defs><style>.cls-1{fill:#231f20;}.cls-2{fill:#fff;}.cls-3,.cls-4{fill:#ffce00;}.cls-3{stroke:#ffde17;stroke-miterlimit:10;stroke-width:0.25px;}</style></defs><title>config_light_background</title><polyline class="cls-1" points="14.35 11.11 7.21 14.94 0.07 11.11 0.07 0.67 7.21 4.49 14.35 0.67 14.35 11.11"/><polygon class="cls-1" points="0.07 2.16 0.07 0.67 7.21 4.49 14.35 0.67 14.35 2.16 7.21 5.99 0.07 2.16"/><polygon class="cls-1" points="0.07 11.11 0.07 9.62 7.21 13.45 14.35 9.62 14.35 11.11 7.21 14.94 0.07 11.11"/><polygon class="cls-2" points="11.69 14.69 7.88 14.69 9.78 11.39 11.69 8.08 13.59 11.39 15.5 14.69 11.69 14.69"/><path class="cls-3" d="M15.83,14.13,12.37,8A.81.81,0,0,0,11,8L7.53,14.13a.81.81,0,0,0,.7,1.21H15.1A.82.82,0,0,0,15.83,14.13Z"/><path class="cls-4" d="M11.68,8.4l3.45,6.13H8.23L11.68,8.4Z"/><path class="cls-2" d="M11.12,11.21l.21,1.42a.36.36,0,0,0,.35.3h0a.38.38,0,0,0,.35-.3l.21-1.42a.56.56,0,0,0-.56-.64h0A.57.57,0,0,0,11.12,11.21Z"/><circle class="cls-2" cx="11.68" cy="13.54" r="0.32"/></svg>