<svg id="Layer_1" data-name="Layer 1" xmlns="http://www.w3.org/2000/svg" viewBox="0 0 16 16"><defs><style>.cls-1{fill:#414042;}.cls-2{fill:#fff;}.cls-3,.cls-4{fill:#ffce00;}.cls-3{stroke:#6d6e71;stroke-miterlimit:10;stroke-width:0.25px;}</style></defs><title>config_dark_background</title><rect class="cls-1" x="-154.82" y="-1.62" width="247.82" height="20.09"/><polyline class="cls-2" points="14.28 11.05 7.14 14.88 0 11.05 0 0.6 7.14 4.43 14.28 0.6 14.28 11.05"/><polygon class="cls-2" points="0 2.1 0 0.6 7.14 4.43 14.28 0.6 14.28 2.1 7.14 5.92 0 2.1"/><polygon class="cls-2" points="0 11.05 0 9.55 7.14 13.38 14.28 9.55 14.28 11.05 7.14 14.88 0 11.05"/><polygon class="cls-2" points="11.62 14.73 7.68 14.73 9.65 11.32 11.62 7.91 13.59 11.32 15.56 14.73 11.62 14.73"/><path class="cls-3" d="M15.89,14.16,12.33,7.82a.83.83,0,0,0-1.44,0L7.32,14.16A.83.83,0,0,0,8,15.4h7.11A.84.84,0,0,0,15.89,14.16Z"/><path class="cls-4" d="M11.61,8.24l3.57,6.33H8l3.57-6.33Z"/><path class="cls-2" d="M11,11.14l.22,1.47a.36.36,0,0,0,.36.3h0a.39.39,0,0,0,.36-.3l.22-1.47a.57.57,0,0,0-.58-.66h0A.58.58,0,0,0,11,11.14Z"/><circle class="cls-2" cx="11.61" cy="13.55" r="0.33"/></svg>