<svg id="Layer_1" data-name="Layer 1" xmlns="http://www.w3.org/2000/svg" viewBox="0 0 16 16"><defs><style>.cls-1{fill:#414042;}.cls-2{fill:#fff;}.cls-3{fill:#23ad29;}</style></defs><title>Connected_darkbackground</title><rect class="cls-1" x="-10.82" y="-1.62" width="247.82" height="20.09"/><polyline class="cls-2" points="14.11 10.78 7.06 14.56 0 10.78 0 0.45 7.06 4.23 14.11 0.45 14.11 10.78"/><polygon class="cls-2" points="0 1.93 0 0.45 7.06 4.23 14.11 0.45 14.11 1.93 7.06 5.71 0 1.93"/><polygon class="cls-2" points="0 10.78 0 9.3 7.06 13.08 14.11 9.3 14.11 10.78 7.06 14.56 0 10.78"/><path class="cls-3" d="M16,11.21a4.34,4.34,0,1,1-4.34-4.34A4.34,4.34,0,0,1,16,11.21Z"/><path class="cls-2" d="M14,9.51a.41.41,0,0,1,0,.59l-2.8,2.81a.42.42,0,0,1-.59,0L9.29,11.57A.42.42,0,0,1,9.88,11l1,1,2.51-2.51A.42.42,0,0,1,14,9.51Z"/></svg>