<svg id="Layer_1" data-name="Layer 1" xmlns="http://www.w3.org/2000/svg" viewBox="0 0 16 16"><defs><style>.cls-1{fill:#fff;stroke:#58595b;stroke-miterlimit:10;stroke-width:0.1px;}</style></defs><title>connected-key-dark</title><path class="cls-1" d="M8,4.34.06.07V11.73L8,16l8-4.27V.07Zm5.84,6.26a.53.53,0,0,1-.52.51h-1a.5.5,0,0,1-.51-.52v-1h-1v1h0a.53.53,0,0,1-.52.52h-1a.52.52,0,0,1-.52-.52v-1H7.5a2.85,2.85,0,1,1,0-2.06l5.87,0a.53.53,0,0,1,.51.52Z"/><path class="cls-1" d="M4.87,7.69a.79.79,0,0,0-.78.77.78.78,0,0,0,1.55,0A.79.79,0,0,0,4.87,7.69Z"/><path class="cls-1" d="M7.08,7.79a2.32,2.32,0,1,0,0,1.39A.27.27,0,0,1,7.32,9H9a.26.26,0,0,1,.26.26v1.29h1V9.28A.26.26,0,0,1,10.53,9h1.55a.26.26,0,0,1,.25.26v1.29h1l0-2.57-6,0A.27.27,0,0,1,7.08,7.79Zm-2.22,2a1.29,1.29,0,1,1,0-2.58,1.29,1.29,0,0,1,0,2.58Z"/></svg>