<svg id="Layer_1" data-name="Layer 1" xmlns="http://www.w3.org/2000/svg" viewBox="0 0 16 16"><defs><style>.cls-1{fill:#414042;}</style></defs><title>Artboard 73</title><path class="cls-1" d="M8,4.28,0,0V11.67l8,4.27,8-4.27V0Zm5.84,6.26a.52.52,0,0,1-.52.51h-1a.5.5,0,0,1-.51-.52v-1h-1v1h0a.53.53,0,0,1-.52.52h-1a.51.51,0,0,1-.51-.52v-1H7.44a2.83,2.83,0,1,1,0-2.06l5.86,0a.53.53,0,0,1,.51.52Z"/><path class="cls-1" d="M4.81,7.63a.78.78,0,0,0,0,1.55.77.77,0,0,0,.78-.77A.79.79,0,0,0,4.81,7.63Z"/><path class="cls-1" d="M7,7.73A2.32,2.32,0,1,0,7,9.12a.27.27,0,0,1,.25-.18H8.93a.26.26,0,0,1,.25.26V10.5h1V9.22A.26.26,0,0,1,10.47,9H12a.26.26,0,0,1,.25.26v1.29h1l0-2.57-6,0A.27.27,0,0,1,7,7.73ZM4.8,9.7A1.29,1.29,0,1,1,6.1,8.42,1.29,1.29,0,0,1,4.8,9.7Z"/></svg>