<svg id="Layer_1" data-name="Layer 1" xmlns="http://www.w3.org/2000/svg" viewBox="0 0 16 16"><defs><style>.cls-1{fill:#fff;stroke:#414042;stroke-miterlimit:10;stroke-width:0.1px;}</style></defs><title>Artboard 74</title><path class="cls-1" d="M4.67,7.36h0a1.09,1.09,0,0,0-.78,1.85,1.07,1.07,0,0,0,.77.32h0a1.09,1.09,0,0,0,0-2.17Z"/><path class="cls-1" d="M8,4.29,0,0V11.71L8,16l8-4.29V0ZM14.11,11H12.39l0-1.69H10.77V11H9.06l0-1.69H7.31a2.75,2.75,0,0,1-2.64,1.92h0A2.8,2.8,0,0,1,2.7,6.45a2.9,2.9,0,0,1,2-.8,2.8,2.8,0,0,1,2.65,2l6.79,0Z"/></svg>